<?xml version="1.0" standalone="no"?>
<!DOCTYPE svg PUBLIC "-//W3C//DTD SVG 20010904//EN"
 "http://www.w3.org/TR/2001/REC-SVG-20010904/DTD/svg10.dtd">
<svg version="1.0" xmlns="http://www.w3.org/2000/svg"
 width="700.000000pt" height="700.000000pt" viewBox="0 0 700.000000 700.000000"
 preserveAspectRatio="xMidYMid meet">
<metadata>
Created by potrace 1.14, written by Peter Selinger 2001-2017
</metadata>
<g transform="translate(0.000000,700.000000) scale(0.100000,-0.100000)"
fill="#000000" stroke="none">
<path d="M3303 6802 c-106 -108 -209 -215 -229 -237 -52 -57 -312 -344 -345
-381 -21 -25 -271 -324 -358 -429 -9 -11 -55 -69 -102 -130 -707 -908 -1144
-1706 -1313 -2398 -37 -151 -39 -160 -56 -277 -30 -207 -32 -412 -4 -654 3
-27 7 -56 9 -65 1 -9 6 -36 10 -61 18 -113 91 -385 126 -467 5 -13 13 -33 18
-45 140 -343 320 -616 576 -873 223 -226 426 -375 687 -506 196 -99 487 -198
656 -225 20 -3 40 -8 43 -9 3 -2 28 -7 55 -11 27 -3 58 -8 69 -10 95 -19 453
-25 615 -11 75 6 111 11 220 31 452 81 932 316 1264 620 132 120 240 237 336
361 350 453 545 1025 544 1595 -1 259 -58 495 -181 750 -31 63 -69 134 -85
157 -15 23 -28 44 -28 48 0 11 -101 156 -193 280 -73 97 -273 344 -297 365 -3
3 -39 43 -80 90 -41 47 -91 103 -111 125 -20 22 -60 67 -90 100 -30 34 -86 97
-125 140 -71 79 -248 283 -332 382 -24 28 -84 102 -133 164 -50 63 -95 121
-102 129 -59 74 -337 473 -337 485 0 2 -22 39 -48 82 -159 256 -348 663 -431
928 -13 39 -25 77 -28 85 -3 8 -7 20 -8 27 -11 48 -20 42 -212 -155z m-93
-2147 c0 -5 -20 -30 -44 -55 -39 -41 -151 -177 -201 -245 -21 -29 -126 -178
-147 -209 -7 -10 -25 -35 -39 -55 -42 -59 -232 -379 -290 -486 -92 -173 -107
-200 -113 -198 -9 4 -292 145 -342 171 l-42 21 62 118 c35 65 77 144 94 177
54 98 195 331 204 334 4 2 8 8 8 13 0 14 184 282 282 410 48 64 123 156 166
204 42 48 81 94 87 101 8 11 44 -20 162 -138 84 -84 153 -157 153 -163z"/>
</g>
</svg>
